# xmcd CD database file
#
# Track frame offsets:
#	150
#	9357
#	31417
#	57467
#	72622
#	101060
#	121835
#	143145
#	168125
#	180247
#
# Disc length: 2633 seconds
#
# Revision: 3
# Processed by: cddbd v1.5.2PL0 Copyright (c) Steve Scherf et al.
# Submitted via: CDex 1.70beta2
#
DISCID=800a470a
DTITLE=The Street Sliders - がんじがらめ
DYEAR=1983
DGENRE=Rock
TTITLE0=Toa・Lit-Tone (踊ろよベイビー)
TTITLE1=So Heavy
TTITLE2=(Nobody Can) Catch Me
TTITLE3=とりあえず, Dance
TTITLE4=道化師のゆううつ
TTITLE5=Tokyoシャッフル
TTITLE6=鉛の夜
TTITLE7=Dancin' Doll
TTITLE8=マンネリ・ブギ
TTITLE9=SLIDER
EXTD=YEAR: 1983
EXTT0=
EXTT1=
EXTT2=
EXTT3=
EXTT4=
EXTT5=
EXTT6=
EXTT7=
EXTT8=
EXTT9=
PLAYORDER=
